PathFileType	4	(X/Y/Z)	D:\TRACE\spot_10-12-23\spot_arm_body_motion_3_9-platform.trc
DataRate	CameraRate	NumFrames	NumMarkers	Units	OrigDataRate	OrigDataStartFrame	OrigNumFrames
100.00	100.00	      37	5	mm	100.00	2626	      7000
Frame#	Time	Left_Front			Right_Front			Left_Aft			Right_Aft			Post			
		X1	Y1	Z1	X2	Y2	Z2	X3	Y3	Z3	X4	Y4	Z4	X5	Y5	Z5	

2626	26.250	-753.86530	-3.42089	-643.80261	819.00140	1.68368	-636.90405	-670.89313	11.53316	493.95767	746.54199	17.52750	580.06903	29.01532	730.06360	-971.95013	
2627	26.260	-754.08331	-3.23622	-643.82996	818.79633	1.90513	-636.89960	-671.19336	11.29840	493.95779	746.29010	17.39361	580.06665	31.13230	729.31055	-972.77936	
2628	26.270	-754.36523	-3.08752	-643.77179	818.43695	2.06303	-636.98163	-671.38910	11.20943	493.99878	746.01025	17.25890	580.05524	28.75683	730.34576	-971.74213	
2629	26.280	-754.51465	-2.99013	-643.71100	818.02325	2.28733	-636.95459	-671.64990	11.15650	494.05304	745.68256	17.10443	580.08057	28.60328	730.52362	-971.67871	
2630	26.290	-754.68201	-2.86757	-643.66467	817.56525	2.41722	-636.82532	-671.98779	11.11419	494.03769	745.34631	17.00806	580.11145	28.33266	730.76373	-971.54865	
2631	26.300	-755.21356	-2.54945	-643.51318	817.08820	2.51956	-636.64813	-672.30817	11.03802	494.10034	744.96783	16.90176	580.24274	27.82000	730.98206	-971.44067	
2632	26.310	-755.78424	-2.24447	-643.52081	816.85132	2.56730	-636.59766	-672.68158	10.92367	494.13907	744.57794	16.74391	580.35883	27.24669	731.16901	-971.23700	
2633	26.320	-756.06451	-2.34091	-643.53625	816.65375	2.66975	-636.59222	-673.15894	10.80035	494.15558	744.36072	16.72561	580.40759	26.87385	731.41241	-971.09442	
2634	26.330	-756.47949	-2.21707	-643.64722	816.45355	2.83275	-636.45544	-673.45789	10.64320	494.26401	744.11395	16.64765	580.45697	26.60612	731.59125	-970.82422	
2635	26.340	-756.77014	-2.12678	-643.63489	816.03766	3.01385	-636.62823	-673.73889	10.56862	494.40265	743.73303	16.54125	580.47632	26.36636	731.85339	-970.82654	
2636	26.350	-756.91943	-1.93273	-643.65350	815.68469	3.24009	-636.60846	-674.17157	10.51918	494.42322	743.26025	16.47344	580.51599	26.08556	732.07019	-970.57715	
2637	26.360	-757.42407	-1.85060	-643.51398	815.25189	3.51213	-636.50568	-674.49341	10.42500	494.38696	742.65277	16.28481	580.51001	25.74951	732.13312	-970.31763	
2638	26.370	-757.88092	-1.76297	-643.41742	814.64124	3.66131	-636.46826	-674.96759	10.32198	494.44388	742.25873	16.23995	580.50977	25.19680	732.30554	-970.00598	
2639	26.380	-758.59589	-1.37010	-643.34204	814.28912	3.67580	-636.46820	-675.46997	10.33984	494.47037	741.88837	16.06141	580.52313	24.51795	732.57837	-969.76056	
2640	26.390	-758.92004	-1.20112	-643.44702	813.95319	3.76681	-636.40076	-675.92572	10.23169	494.58737	741.48340	15.98269	580.63477	24.04502	732.71838	-969.49731	
2641	26.400	-759.20728	-1.14234	-643.45752	813.57373	3.96160	-636.33105	-676.33417	10.14221	494.53729	740.93536	15.94555	580.69757	23.64646	732.88428	-969.35370	
2642	26.410	-759.59625	-1.12392	-643.43298	813.19690	3.99694	-636.22034	-676.65289	10.12499	494.52319	740.64642	15.91314	580.76910	23.18057	733.18164	-969.38959	
2643	26.420	-760.01978	-1.16402	-643.42706	812.70453	4.07377	-636.15735	-676.98499	10.05219	494.54703	740.26526	15.89481	580.77893	22.84408	733.26825	-969.23755	
2644	26.430	-760.24951	-1.35805	-643.44434	812.31989	4.01385	-636.19629	-677.46307	10.03386	494.49643	739.77728	15.76877	580.71741	22.41561	733.36780	-969.11444	
2645	26.440	-760.94366	-1.33313	-643.36853	811.77191	4.08256	-636.23541	-677.94556	9.97103	494.75031	739.22961	15.66554	580.68719	21.96642	733.40601	-969.12146	
2646	26.450	-761.78766	-0.97094	-643.21204	811.28796	4.07828	-636.36432	-678.59808	9.99768	494.69495	738.78223	15.71821	580.87024	21.57373	733.43713	-969.10657	
2647	26.460	-761.89105	-1.04304	-643.30713	810.74756	4.06679	-636.33856	-679.10889	9.99417	494.70047	738.22937	15.71297	580.98181	21.02153	733.49860	-969.06219	
2648	26.470	-762.16479	-1.11103	-643.27386	810.06799	4.18312	-636.29724	-679.38446	9.91335	494.80804	737.87286	15.65451	581.02246	20.52141	733.55023	-969.20563	
2649	26.480	-762.43835	-1.09802	-643.45386	809.82520	4.15796	-636.13763	-679.73718	9.81669	494.82263	737.50610	15.65653	580.98511	20.19240	733.58105	-969.25848	
2650	26.490	-763.36078	-0.83294	-643.24988	809.47198	4.15235	-636.24542	-680.23676	9.69112	494.85004	736.95227	15.61843	580.90424	19.78956	733.53998	-969.29510	
2651	26.500	-764.07678	-0.58694	-643.28900	808.88690	4.20933	-636.42651	-680.84131	9.66637	494.92609	736.39722	15.54692	580.82281	19.22881	733.49500	-969.33362	
2652	26.510	-764.23865	-0.94063	-643.39069	808.46411	4.22950	-636.38318	-681.31012	9.67853	494.90533	735.84973	15.55178	580.78137	18.65388	733.41913	-969.27252	
2653	26.520	-764.86328	-0.93029	-643.22363	807.98047	4.21338	-636.31372	-681.94922	9.79378	494.88434	735.33752	15.63128	580.83917	18.11277	733.32672	-969.14258	
2654	26.530	-765.69037	-0.91098	-643.22015	807.51044	4.17859	-636.25024	-682.21887	9.95839	494.91565	734.88788	15.55704	580.84637	17.20007	733.30701	-969.19928	
2655	26.540	-765.58655	-1.25904	-643.37201	806.87201	3.98702	-636.35791	-682.61719	10.00979	494.90613	734.61328	15.61156	580.84717	17.34582	733.16370	-969.14014	
2656	26.550	-766.07684	-1.35064	-643.36694	806.36310	3.77983	-636.47369	-683.25403	9.94108	494.76193	734.18610	15.71424	580.75568	17.02624	733.15363	-969.24072	
2657	26.560	-766.82928	-1.11924	-643.30670	805.89624	3.77785	-636.49261	-683.77185	10.04406	494.63724	733.31989	15.78636	580.69104	16.62571	733.14233	-969.24323	
2658	26.570	-767.40973	-0.99143	-643.34912	805.29688	3.74572	-636.54547	-684.30865	10.15707	494.60468	732.91418	15.89952	580.64465	16.01432	733.11853	-969.51526	
2659	26.580	-767.66693	-1.26417	-643.54138	804.89069	3.73416	-636.44366	-684.78162	10.23223	494.67154	732.63092	15.97519	580.62042	15.32359	732.95337	-969.66138	
2660	26.590	-768.19476	-1.37079	-643.39331	804.53174	3.67671	-636.36969	-685.23462	10.24173	494.49060	732.30194	15.98039	580.63171	14.53598	732.97583	-969.79694	
2661	26.600	-768.84064	-1.44814	-643.41888	804.19678	3.62482	-636.39966	-685.67212	10.26620	494.44336	731.86902	15.97938	580.72369	13.78720	732.91870	-969.51703	
2662	26.610	-769.45276	-1.30037	-643.40845	803.50623	3.57150	-636.54987	-686.08459	10.16485	494.64368	731.23438	16.04014	580.71985	13.75548	732.67664	-969.88324	
